<?xml version="1.0" standalone="no"?><!DOCTYPE svg PUBLIC "-//W3C//DTD SVG 1.1//EN" "http://www.w3.org/Graphics/SVG/1.1/DTD/svg11.dtd"><svg class="icon" height="512" viewBox="0 0 1024 1024" version="1.1" xmlns="http://www.w3.org/2000/svg"><path d="M499.4 495.8L372.7 359.1l-0.9 1c5.4 45.9 21 69.1 39.8 89.8 26.9 29.1 61.3 43.9 86.9 46.9l0.9-1z m15.2 33.5c0.1 1.6 0.3 3.5 0.6 5.7 0.2-2.1 0.3-4 0.3-5.7h-0.9z m-16.1-11.8c-25.5 3-60 17.8-86.9 46.9-18.8 20.7-34.5 43.9-40.7 90.8l1.3 1 127.2-137.6-0.9-1.1zM398.2 479l-23.7 26.6 23.7 29.6 26.9-29.6-26.9-26.6z m98.5 28.6c-1.6 0.1-3.6 0.3-5.8 0.6 2.2 0.3 4.1 0.4 5.8 0.4v-1zM769 32H255c-34.8 0-63 30.4-63 67.9v824.3c0 37.5 28.2 67.9 63 67.9h514c34.8 0 63-30.4 63-67.9V99.9c0-37.5-28.2-67.9-63-67.9z m-443.6 81.8c34.3 0 59.5 41.8 81.2 64.6l0.9-1c-2.7-8-3.6-15.9-3.6-24.9 0-8.9 5.4-37.8 31.6-37.8 21.7 0 29.8 19.9 29.8 28.8 0 12.9-8.1 27.8-21.7 27.8-11.7 0-16.2-9-16.2-14.9 0-6.9 1.8-13.9 9-13.9 6.3 0 9 5 9 11.9 0 2 0 4-0.9 6 3.6 0 12.6-3 12.6-16.9 0-11.9-9.9-20.9-20.7-20.9-11.7 0-24.4 7-24.4 31.8 0 21.9 9 46.7 47.8 46.7 13.5 0 48.7-9.9 48.7-53.7 0-21.9-9.9-26.8-18-26.8-6.3 0-10.8 4-10.8 11.9 0 4 2.7 7.9 6.3 8.9 0-4 1.8-7.9 5.4-7.9 3.6 0 6.3 5 6.3 8.9 0 4-2.7 10.9-9.9 10.9-5.4 0-15.3-6-15.3-18.9 0-15.9 9.9-20.9 18-20.9 11.7 0 21.7 7 24.8 22.9h0.9c3.2-15.9 13.1-22.9 23.9-22.9 9 0 19 5 19 20.9 0 12.9-9.9 17.9-15.3 17.9-7.2 0-9.9-6-9.9-9.9 0-4 2.7-8.9 6.3-8.9 2.7 0 5.4 4 5.4 7.9 3.6-1 6.3-5 6.3-9.9 0-7-5.4-10.9-11.7-10.9-7.2 0-17.1 5-17.1 26.8 0 43.7 35.2 53.7 47.8 53.7 39.7 0 48.7-24.9 48.7-47.7 0-23.9-12.6-30.8-24.4-30.8-10.8 0-20.7 9-20.7 20.9 0 13.9 8.1 16.9 11.7 16.9 0-2-0.9-5 0-6 0-7 2.7-11.9 9-11.9s9 7 9 13.9c0 6-4.5 14.9-16.2 14.9-13.5 0-21.7-14.9-21.7-27.8 0-9.9 8.1-28.8 29.8-28.8 26.2 0 31.6 28.8 31.6 37.8 0 9-0.9 16.9-4.5 24.9l0.9 1c21.7-22.9 47.8-64.6 81.2-64.6 31.6 0 36.1 28.8 36.1 36.8 0 9.9-3.6 32.8-30.7 32.8-10.8 0-19.8-10-19.8-20.9 0-11.9 7.2-16.9 12.6-16.9 5.4 0 10.8 3 10.8 10.9 0 8-4.5 9-5.4 10 0.9 3 3.6 5 6.3 5 4.5 0 17.1-1 17.1-20.9 0-17.9-11.7-27.8-26.2-27.8-23.5 0-38.8 17.9-82.1 67.6l0.9 1c7.2-3 15.3-6 19.8-6 14.4 0 32.5 10 32.5 37.8 0 26.8-16.2 37.8-32.5 37.8-16.2 0-26.2-14.9-26.2-25.8s5.4-16.9 13.5-16.9c7.2 0 9.9 6 9.9 10.9 0 5-1.8 11.9-10.8 10.9 1.8 5 5.4 10.9 13.5 10.9 12.6 0 24.4-9.9 24.4-27.8 0-18.9-10.8-28.8-23.5-28.8-4.5 0-12.6 2-21.7 6-9.9 4-36.1 10.9-53.2 10.9-16.2 0-46-10.9-54.6-44.7h-0.5c-9 33.8-38.8 45.7-55.9 45.7-16.2 0-42.4-8-52.3-11.9-9-4-17.1-6-21.7-6-12.6 0-23.5 9.9-23.5 28.8 0 17.9 11.7 27.8 23.5 27.8 9 0 12.6-6 14.4-10.9-9 1-10.8-6-10.8-10.9 0-5 2.7-10.9 9.9-10.9 8.1 0 13.5 6 13.5 16.9 0 10.9-9.9 25.8-27.1 25.8-15.3 0-31.6-10.9-31.6-37.8 0-27.8 17.1-37.8 31.6-37.8 5.4 0 13.5 3 19.9 6l0.9-1c-42.4-49.7-57.7-67.6-81.2-67.6-14.4 0-26.2 10-26.2 27.8 0 19.9 12.6 20.9 17.1 20.9 2.7 0 5.4-2 6.3-5-1.8-1-5.4-2-5.4-10 0-6.9 5.4-10.9 10.8-10.9s12.6 5 12.6 16.9c0 10.9-9 20.9-20.8 20.9-26.2 0-29.8-22.9-29.8-32.8 0.5-8 4.1-36.8 35.7-36.8z m400.8 189.4c2.4 0.8 3.9 1.1 4.8 1.1l1.8 0.4c2.1 0.5 2.2 1.4 0.8 2.8-3.1 3.4-6.4 7.1-7.9 8.9-1.6 2-4 3.7-6 4.6-0.1 9.5 6 21.8 24.8 42.3l0.4-0.3c-2.5-6-3.3-13.1-3.3-16.8 0-10.3 5.2-27.7 24.1-27.7 6.8 0 15.6 2.3 21.1 5.7 2.1 1.2 2.3 2.8-0.6 2.8-2.1 0-9.8 0.2-14.3 2.5-2.3 1.1-2.7 1.8-0.3 3.7 2.1 2 6.8 9.1 7.7 10.8 1.1 2.1 1.1 3.5-1.6 2.5-1.9-0.9-6.6-1.6-9-1.4-11.4 1.1-19.7 8.3-19.7 18.2 0 3.2 1.6 5.2 4.2 8.5 8.7 11.3 15.6 24.2 15.6 40 0 17.8-11.3 38.3-33.4 38.3-9.4 0-17.5-5.7-17.5-13.6 0-5 3.5-8.7 7.5-9.1 1.7-0.2 2.9 0.3 3.6 1.2 2.3 6 6.3 10.8 14.2 10.8 11.8 0 19.5-9.6 19.5-24.2 0-13.9-6.3-26.3-16.5-38.9-1.3-1.6-2.7-3.7-6.8-3.7-24.9 0-27.6 20.8-27.6 22.7 0 2.8-0.8 3.8-3.2 1.8-2.9-2.7-4.5-7.5-4.5-10.5 0-1.6-0.6-2-2.4-1.6-8.2 1.6-14.8 8.3-17.1 13.4-1.5 3.2-2.6 1.9-2.6-0.7 0-8.1 1.8-17 7.3-24.4 5.2-7.3 13.9-12.1 24-12.1 7.5 0 17.3 1.8 25.7 6.3l0.3-0.2c-16.8-15.7-25.1-29.6-25.1-40.7 0-1.3 0-3.1 0.3-5.1-3.3 0.2-6.4-1.1-9.3-2.3-3.2-1.4-6-2.3-8.7-2.7-1.9-0.3-2.4-1.2-1-2.8 1-0.9 1.8-2 3.2-3.4 2.4-2.1 1.9-2.7-1.3-3.6-3.1-0.7-12.7-4.6-16.6-7.5-4.8-3.7-10.5-8.5-10.5-23.4v-0.2c0-5 0.8-11.5 1.9-14.2 1-2.5 1.6-2 2.7 0 2.1 3.7 9.8 7.8 16 8.3 1.9 0.2 2.4-0.2 2.4-2.8 0-6.6 0.6-12.1 2.9-17.2 1.5-3.5 2.6-6.6 3.5-9.4 0.6-1.9 1.6-1.9 3.2-0.4 1.9 2.1 4.2 5 6.4 7.3 4 4.6 7.1 10.3 8.1 13.1 1 2.7 1.9 3.7 4.2 1.4 2.9-2.8 6.1-7.3 8.7-13.7 0.8-1.8 1.4-2.7 4.8 1.4 4.5 5.7 7.2 15.1 7.2 21.8 0 11.7-5.6 17.4-16.3 27.9-2 2.9-2 3.4 0.2 4.1z m18.3 345.4c-18.9 20.5-24.9 32.8-24.8 42.3 2.1 0.9 4.4 2.7 6 4.6 1.4 1.8 4.8 5.5 7.9 8.9 1.4 1.4 1.3 2.3-0.8 2.8l-1.8 0.4c-1 0-2.4 0.3-4.8 1.1-2.3 0.7-2.3 1.2 0 3.7 10.6 10.5 16.3 16.2 16.3 27.9 0 6.7-2.7 16.2-7.2 21.8-3.4 4.1-4 3.2-4.8 1.4-2.6-6.4-5.8-10.8-8.7-13.7-2.3-2.3-3.2-1.2-4.2 1.4-1 2.8-4 8.5-8.1 13.1-2.3 2.3-4.5 5.1-6.4 7.3-1.6 1.6-2.6 1.6-3.2-0.4-1-2.8-2.1-5.9-3.5-9.4-2.3-5.2-2.9-10.7-2.9-17.2 0-2.7-0.5-3-2.4-2.8-6.1 0.5-13.9 4.6-16 8.3-1.1 2-1.8 2.5-2.7 0-1.1-2.7-1.9-9.2-1.9-14.2v-0.2c0-14.9 5.6-19.7 10.5-23.4 3.9-2.8 13.5-6.7 16.6-7.5 3.2-0.9 3.7-1.4 1.3-3.6-1.4-1.4-2.3-2.5-3.2-3.4-1.5-1.6-1-2.6 1-2.8 2.7-0.4 5.5-1.2 8.7-2.7 2.9-1.2 6-2.5 9.3-2.3-0.3-2-0.3-3.7-0.3-5.1 0-11.1 8.4-24.9 25.1-40.7l-0.3-0.2c-8.4 4.5-18.2 6.3-25.7 6.3-10.2 0-18.9-4.8-24-12.1-5.5-7.5-7.3-16.3-7.3-24.4 0-2.6 1-3.9 2.6-0.7 2.3 5.1 8.9 11.8 17.1 13.4 1.8 0.4 2.4 0 2.4-1.6 0-3 1.6-7.8 4.5-10.5 2.4-2 3.2-1.1 3.2 1.8 0 2 2.7 22.7 27.6 22.7 4 0 5.5-2.1 6.8-3.7 10.2-12.6 16.5-25 16.5-38.9 0-14.6-7.7-24.2-19.5-24.2-7.9 0-11.8 4.8-14.2 10.8-0.7 1-1.9 1.4-3.6 1.2-3.9-0.4-7.5-4.1-7.5-9.1 0-7.9 8.1-13.6 17.5-13.6 22.1 0 33.4 20.4 33.4 38.3 0 15.7-6.9 28.7-15.6 40-2.6 3.3-4.2 5.3-4.2 8.5 0 9.9 8.4 17.1 19.7 18.2 2.4 0.2 7.1-0.5 9-1.4 2.7-1.1 2.7 0.4 1.6 2.5-1 1.8-5.6 8.9-7.7 10.8-2.4 2-1.9 2.7 0.3 3.7 4.5 2.3 12.2 2.5 14.3 2.5 2.9 0 2.7 1.6 0.6 2.8-5.5 3.4-14.3 5.7-21.1 5.7-18.9 0-24.1-17.4-24.1-27.7 0-3.7 0.8-10.7 3.3-16.8l-0.6 0.1z m-20.2-174.7l15.3-16.9 15.3 16.9-15.2 16.7 15.2 16.9 15.2-16.7 15.3 16.9-15.3 16.9-15.2-16.7-15.2 16.6 15.2 16.7-15.3 16.9-15.3-16.9 15.2-16.7-15.2-16.6-15.2 16.7-15.3-16.9 15.3-16.9 15.2 16.7 15.2-16.9-15.2-16.7z m-94.1-15.1c-34.9 38-77.5 49.8-93.1 49.8 15.7 0 58.2 8.9 93.1 46.9 23.7 29.6 39.8 67.6 39.8 120.4-47.9 0-82.4-17.8-109.2-46.9-28.8-32.1-42.5-73.6-45.5-94-1.9 20.4-13.5 61.8-42.2 94-26.9 29.1-64 46.9-111.9 46.9 0-52.8 16.1-90.8 42.5-120.4 28.9-34.1 68.3-44.7 87.4-47.3-19.1-2.3-58.5-15.4-87.4-49.4-26.4-29.6-42.5-67.6-42.5-120.4 47.9 0 85.1 17.8 111.9 46.9 31.8 35.5 42.5 82.4 41.6 99.6h0.9c0-17.3 13.4-64.1 45.2-99.6 26.9-29.1 61.3-46.9 109.2-46.9 0 52.8-16.1 90.8-39.8 120.4z m39.8 46.9l-37.2 38-34.9-38 34.9-38 37.2 38zM481.1 634.9l37.2-38.5 34.5 41.4-34.5 38-37.2-40.9z m16.6 172.3c0 2 0 4-0.9 6-3.6-7-10.8-16.9-21.7-22.9-11.7-6-28-9.9-28-24.9 0-7.9 5.4-14.9 12.6-14.9 19 0.1 38 41.8 38 56.7z m18-99.4c15.3 0 17.1 20.9 17.1 32.8 0 12.9-9.9 39.8-11.7 50.7-1.8 9.9-5.4 37.8-5.4 37.8s-3.6-27.8-5.4-37.8c-1.8-10.9-12.6-38.8-12.6-50.7 0-11.9 2.7-32.8 18-32.8z m54.2 42.8c7.2 0 12.6 7 12.6 14.9 0 14.9-16.2 18.9-28 25.9-10.8 5-18 14.9-21.6 21.9-0.9-2-0.9-4-0.9-6 0-15 18.9-56.7 37.9-56.7z m-261.1-42c-2.4-0.8-3.9-1.1-4.8-1.1l-1.8-0.4c-2.1-0.5-2.2-1.4-0.8-2.8 3.1-3.4 6.4-7.1 7.9-8.9 1.6-2 4-3.7 6-4.6 0.1-9.5-6-21.8-24.8-42.3l-0.4 0.3c2.5 6 3.3 13.1 3.3 16.8 0 10.3-5.2 27.7-24.1 27.7-6.8 0-15.6-2.3-21.1-5.7-2.1-1.2-2.3-2.8 0.6-2.8 2.1 0 9.8-0.2 14.3-2.5 2.3-1.1 2.7-1.8 0.3-3.7-2.1-2-6.8-9.1-7.7-10.8-1.1-2.1-1.1-3.5 1.6-2.5 1.9 0.9 6.6 1.6 9 1.4 11.4-1.1 19.7-8.3 19.7-18.2 0-3.2-1.6-5.2-4.2-8.5-8.7-11.3-15.6-24.2-15.6-40 0-17.8 11.3-38.3 33.4-38.3 9.4 0 17.5 5.7 17.5 13.6 0 5-3.5 8.7-7.5 9.1-1.7 0.2-2.9-0.3-3.6-1.2-2.3-6-6.3-10.8-14.2-10.8-11.8 0-19.5 9.6-19.5 24.2 0 13.9 6.3 26.3 16.5 38.9 1.3 1.6 2.7 3.7 6.8 3.7 24.9 0 27.6-20.8 27.6-22.7 0-2.8 0.8-3.8 3.2-1.8 2.9 2.7 4.5 7.5 4.5 10.5 0 1.6 0.6 2 2.4 1.6 8.2-1.6 14.8-8.3 17.1-13.4 1.5-3.2 2.6-1.9 2.6 0.7 0 8.1-1.8 17-7.3 24.4-5.2 7.3-13.9 12.1-24 12.1-7.5 0-17.3-1.8-25.7-6.3l-0.3 0.2c16.8 15.7 25.1 29.6 25.1 40.7 0 1.3 0 3.1-0.3 5.1 3.3-0.2 6.4 1.1 9.3 2.3 3.2 1.4 6 2.3 8.7 2.7 1.9 0.3 2.4 1.2 1 2.8-1 0.9-1.8 2-3.2 3.4-2.4 2.1-1.9 2.7 1.3 3.6 3.1 0.7 12.7 4.6 16.6 7.5 4.8 3.7 10.5 8.5 10.5 23.4v0.2c0 5-0.8 11.5-1.9 14.2-1 2.5-1.6 2-2.7 0-2.1-3.7-9.8-7.8-16-8.3-1.9-0.2-2.4 0.2-2.4 2.8 0 6.6-0.6 12.1-2.9 17.2-1.5 3.5-2.6 6.6-3.5 9.4-0.6 2-1.6 2-3.2 0.4-1.9-2.1-4.2-5-6.4-7.3-4-4.6-7.1-10.3-8.1-13.1-1-2.7-1.9-3.7-4.2-1.4-2.9 2.8-6.1 7.3-8.7 13.7-0.8 1.8-1.4 2.7-4.8-1.4-4.5-5.7-7.2-15.1-7.2-21.8 0-11.7 5.6-17.4 16.3-27.9 2-2.9 2-3.4-0.2-4.1z m-26-345.3c18.9-20.5 24.9-32.8 24.8-42.3-2.1-0.9-4.4-2.7-6-4.6-1.4-1.8-4.8-5.5-7.9-8.9-1.4-1.4-1.3-2.3 0.8-2.8l1.8-0.4c1 0 2.4-0.3 4.8-1.1 2.3-0.7 2.3-1.2 0-3.7-10.6-10.5-16.3-16.2-16.3-27.9 0-6.7 2.7-16.2 7.2-21.8 3.4-4.1 4-3.2 4.8-1.4 2.6 6.4 5.8 10.8 8.7 13.7 2.3 2.3 3.2 1.2 4.2-1.4 1-2.8 4-8.5 8.1-13.1 2.3-2.3 4.5-5.1 6.4-7.3 1.6-1.6 2.6-1.6 3.2 0.4 1 2.8 2.1 5.9 3.5 9.4 2.3 5.1 2.9 10.7 2.9 17.2 0 2.7 0.5 3 2.4 2.8 6.1-0.5 13.9-4.6 16-8.3 1.1-2 1.8-2.5 2.7 0 1.1 2.7 1.9 9.2 1.9 14.2v0.2c0 14.9-5.6 19.7-10.5 23.4-3.9 2.8-13.5 6.7-16.6 7.5-3.2 0.9-3.7 1.4-1.3 3.6 1.4 1.4 2.3 2.5 3.2 3.4 1.5 1.6 1 2.6-1 2.8-2.7 0.4-5.5 1.2-8.7 2.7-2.9 1.2-6 2.5-9.3 2.3 0.3 2 0.3 3.7 0.3 5.1 0 11.1-8.4 24.9-25.1 40.7l0.3 0.2c8.4-4.5 18.2-6.3 25.7-6.3 10.2 0 18.9 4.8 24 12.1 5.5 7.5 7.3 16.3 7.3 24.4 0 2.6-1 3.9-2.6 0.7-2.3-5.1-8.9-11.8-17.1-13.4-1.8-0.4-2.4 0-2.4 1.6 0 3-1.6 7.8-4.5 10.5-2.4 2-3.2 1.1-3.2-1.8 0-2-2.7-22.7-27.6-22.7-4 0-5.5 2.1-6.8 3.7-10.2 12.6-16.5 25-16.5 38.9 0 14.7 7.7 24.2 19.5 24.2 7.9 0 11.8-4.8 14.2-10.8 0.7-1 1.9-1.4 3.6-1.2 3.9 0.4 7.5 4.1 7.5 9.1 0 7.9-8.1 13.6-17.5 13.6-22.1 0-33.4-20.4-33.4-38.3 0-15.7 6.9-28.7 15.6-40 2.6-3.3 4.2-5.3 4.2-8.5 0-9.9-8.4-17.1-19.7-18.2-2.4-0.2-7.1 0.5-9 1.4-2.7 1.1-2.7-0.4-1.6-2.5 1-1.8 5.6-8.9 7.7-10.8 2.4-2 1.9-2.7-0.3-3.7-4.5-2.3-12.2-2.5-14.3-2.5-2.9 0-2.7-1.6-0.6-2.8 5.5-3.4 14.3-5.7 21.1-5.7 18.9 0 24.1 17.4 24.1 27.7 0 3.7-0.8 10.7-3.3 16.8l0.6-0.1z m25.4 177.8L292.9 558l-15.3-16.9 15.2-16.7-15.2-16.6-15.2 16.7-15.3-16.9 15.3-16.9 15.2 16.7 15.2-16.9-15.2-16.7 15.3-16.9 15.3 16.9-15.2 16.8 15.2 16.9 15.2-16.7 15.3 16.9-15.3 16.9-15.2-16.7-15.2 16.4 15.2 16.8z m55.6-35.4l34.5-38 37.6 38-37.6 41-34.5-41z m169.1-223.9c0 11.9-1.8 32.8-17.1 32.8s-18-20.9-18-32.8c0-11.9 10.8-39.8 12.6-50.7 1.8-9.9 5.4-37.8 5.4-37.8s3.6 27.8 5.4 37.8c1.8 10.9 11.7 37.8 11.7 50.7z m-0.9-66.6c0-2 0-4 0.9-6 3.6 7 10.8 16.9 21.6 21.9 11.7 7 28 10.9 28 25.9 0 7.9-5.4 14.9-12.6 14.9-19 0-37.9-41.8-37.9-56.7z m20.7 161.2l-37.2 41.4-34.5-41.4 34.5-38 37.2 38z m-92.9-104.5c-7.2 0-12.6-7-12.6-14.9 0-14.9 16.2-18.9 28-24.9 10.8-6 18-15.9 21.7-22.9 0.9 2 0.9 4 0.9 6-0.1 14.9-19.1 56.7-38 56.7zM247 193.7l15.2 16.7 15.2-16.9-15.2-16.7 15.3-16.9 15.3 16.9-15.2 16.7 15.2 16.9 15.2-16.7 15.3 16.9-15.3 16.9-15.2-16.7-15.2 16.6 15.2 16.7-15.3 16.9-15.4-17 15.2-16.7-15.2-16.6-15.1 16.7-15.3-16.9 15.3-16.8z m15.1 644.4l15.2-16.7-15.2-16.6-15.1 16.7-15.3-16.9 15.3-16.9 15.2 16.7 15.2-16.9-15.2-16.7 15.3-16.9 15.3 16.9-15.2 16.7 15.2 16.9 15.2-16.7 15.3 16.9-15.3 16.9-15.2-16.7-15.2 16.6 15.2 16.7-15.3 16.9-15.4-16.9z m443.1 70.5c-33.4 0-59.5-41.8-81.2-64.6l-0.9 1c3.6 8 4.5 15.9 4.5 24.9 0 8.9-5.4 37.8-31.6 37.8-21.6 0-29.8-18.9-29.8-28.8 0-12.9 8.1-27.8 21.7-27.8 11.7 0 16.2 9 16.2 14.9 0 6.9-2.7 13.9-9 13.9s-9-5-9-11.9c-0.9-1 0-4 0-6-3.6 0-11.7 3-11.7 16.9 0 11.9 9.9 20.9 20.7 20.9 11.7 0 24.4-7 24.4-30.8 0-22.9-9-47.7-48.7-47.7-12.6 0-47.8 9.9-47.8 53.7 0 21.9 9.9 26.8 17.1 26.8 6.3 0 11.7-4 11.7-10.9 0-5-2.7-8.9-6.3-9.9 0 4-2.7 7.9-5.4 7.9-3.6 0-6.3-5-6.3-8.9 0-4 2.7-9.9 9.9-9.9 5.4 0 15.3 5 15.3 17.9 0 15.9-9.9 20.9-19 20.9-10.8 0-20.7-7-23.9-22.9h-0.9c-3.2 15.9-13.1 22.9-24.8 22.9-8.1 0-18-5-18-20.9 0-12.9 9.9-18.9 15.3-18.9 7.2 0 9.9 7 9.9 10.9 0 4-2.7 8.9-6.3 8.9-3.6 0-5.4-4-5.4-7.9-3.6 1-6.3 5-6.3 8.9 0 8 4.5 11.9 10.8 11.9 8.1 0 18-5 18-26.8 0-43.7-35.2-53.7-48.7-53.7-38.8 0-47.8 24.9-47.8 46.7 0 24.9 12.6 31.8 24.4 31.8 10.8 0 20.7-9 20.7-20.9 0-13.9-9-16.9-12.6-16.9 0.9 2 0.9 4 0.9 6 0 7-2.7 11.9-9 11.9-7.2 0-9-7-9-13.9 0-6 4.5-14.9 16.2-14.9 13.5 0 21.7 14.9 21.7 27.8 0 9-8.1 28.8-29.8 28.8-26.2 0-31.6-28.8-31.6-37.8 0-9 0.9-16.9 3.6-24.9l-0.9-1c-21.6 22.9-46.9 64.6-81.2 64.6-31.6 0-35.2-28.8-35.2-36.8 0-9.9 3.6-32.8 29.8-32.8 11.7 0 20.8 10 20.8 20.9 0 11.9-7.2 16.9-12.6 16.9-5.4 0-10.8-4-10.8-10.9 0-8 3.6-9 5.4-10-0.9-3-3.6-5-6.3-5-4.5 0-17.1 1-17.1 20.9 0 17.9 11.7 27.8 26.2 27.8 23.5 0 38.8-17.9 81.2-67.6l-0.9-1c-6.3 3-14.4 6-19.9 6-14.4 0-31.6-10-31.6-37.8 0-26.8 16.2-37.8 31.6-37.8 17.1 0 27.1 14.9 27.1 25.8s-5.4 16.9-13.5 16.9c-7.2 0-9.9-6-9.9-10.9 0-5 1.8-11.9 10.8-10.9-1.8-5-5.4-10.9-14.4-10.9-11.7 0-23.5 9.9-23.5 27.8 0 18.9 10.8 28.8 23.5 28.8 4.5 0 12.6-2 21.7-6 9.9-4 36.1-11.9 52.3-11.9 17.1 0 46.9 11.9 55.9 45.7h0.5c8.6-33.8 38.3-44.7 54.6-44.7 17.1 0 43.3 7 53.2 10.9 9 4 17.1 6 21.7 6 12.6 0 23.5-9.9 23.5-28.8 0-17.9-11.7-27.8-24.4-27.8-8.1 0-11.7 6-13.5 10.9 9-1 10.8 6 10.8 10.9 0 5-2.7 10.9-9.9 10.9-8.1 0-13.5-6-13.5-16.9 0-10.9 9.9-25.8 26.2-25.8 16.2 0 32.5 10.9 32.5 37.8 0 27.8-18 37.8-32.5 37.8-4.5 0-12.6-3-19.8-6l-0.9 1c43.3 49.7 58.6 67.6 82.1 67.6 14.4 0 26.2-9.9 26.2-27.8 0-19.9-12.6-20.9-17.1-20.9-2.7 0-5.4 2-6.3 5 0.9 1 5.4 2 5.4 10 0 7.9-5.4 10.9-10.8 10.9s-12.6-5-12.6-16.9c0-10.9 9-20.9 19.8-20.9 27.1 0 30.7 22.9 30.7 32.8-0.5 8-5 36.8-36.6 36.8z m80.3-87.1l-15.2-16.7-15.2 16.6 15.2 16.7-15.3 16.8-15.3-16.9 15.2-16.7-15.2-16.6-15.2 16.7-15.3-16.9 15.3-16.9 15.2 16.7 15.2-16.9-15.2-16.7L755 754l15.3 16.9-15.2 16.7 15.2 16.9 15.2-16.7 15.3 16.9-15.3 16.8z m0-594.1l-15.2-16.7-15.2 16.6 15.2 16.7-15.3 16.9-15.3-16.9 15.2-16.7-15.2-16.6-15.2 16.7-15.3-16.9 15.3-16.9 15.2 16.7 15.2-16.9-15.2-16.7L755 160l15.3 16.9-15.2 16.7 15.2 16.9 15.2-16.7 15.3 16.9-15.3 16.7z m-75.2 48.1c-2.6-1.8-3.2-1.8-4.7 0.7-2.1 3.6-3.6 8-3.6 12.6 0 7.6 4.2 13.9 8.5 17.2 2.4 1.8 2.7 1.4 4.2-0.4 2.6-3.4 4.7-9.8 4.7-13.3v-0.2c0-7.5-5-13.7-9.1-16.6zM382.6 663l0.9 1c38.9-5.9 62.7-23.2 81.5-43.9 26.9-29.1 39.8-64.6 42.5-92.8l-0.9-1-124 136.7z m328 42.8c-4.4 3.4-8.5 9.6-8.5 17.2 0 4.6 1.5 9.1 3.6 12.6 1.4 2.5 2.1 2.5 4.7 0.7 4.2-2.8 9.2-9.1 9.2-16.7v-0.2c0-3.5-2.1-9.9-4.7-13.3-1.6-1.8-1.9-2.1-4.3-0.3zM536.1 507.6l0.9 1v-1h-0.9z m6.3 130.3l-24.2-29.6-26.4 26.6 26.4 29.1 24.2-26.1z m90.4-105.6l26.4-26.7-26.4-26.6-24.2 26.6 24.2 26.7z m-141-155.9l23.7 29.6 26.9-29.6-26.9-26.1-23.7 26.1z m-175.1-70.3c4.4-3.4 8.5-9.6 8.5-17.2 0-4.6-1.5-9.1-3.5-12.6-1.4-2.5-2.1-2.5-4.7-0.7-4.2 2.8-9.2 9.1-9.2 16.7v0.2c0 3.5 2.1 9.9 4.7 13.3 1.5 1.7 1.8 2.1 4.2 0.3z m8 430.2c2.6 1.8 3.2 1.8 4.7-0.7 2.1-3.6 3.6-8 3.6-12.6 0-7.6-4.2-13.9-8.5-17.2-2.4-1.8-2.7-1.4-4.2 0.4-2.6 3.4-4.7 9.8-4.7 13.3v0.2c0 7.5 4.9 13.8 9.1 16.6z m201.6-208.9c2.7 28.1 16.1 63.6 42.5 92.8 18.8 20.7 39.8 38 81.5 43.9l0.9-1-124-136.6-0.9 0.9z m8-8.9L661 655.1l0.9-1c-5.4-45.9-23.7-69.1-42.5-89.8-24.2-29.1-58.7-43.9-84.2-46.9l-0.9 1.1zM383.5 350.3l-0.9 1 124 136.6 0.9-1c-5.4-28.1-15.7-63.6-42.5-92.7-18.9-20.7-42.6-38-81.5-43.9z m267.7 1l-0.9-1c-41.6 5.9-62.7 23.2-81.5 43.9-26.4 29.1-39.9 64.6-42.5 92.7l0.9 1 124-136.6z m9.8 7.8L534.3 495.8l0.9 1c25.5-3 57.8-17.8 84.2-46.9 18.8-20.7 34.5-43.9 42.5-89.8l-0.9-1z" /></svg>